<?xml version="1.0" encoding="utf-8"?>
<!-- Generator: Adobe Illustrator 22.0.0, SVG Export Plug-In . SVG Version: 6.00 Build 0)  -->
<svg version="1.1" xmlns="http://www.w3.org/2000/svg" xmlns:xlink="http://www.w3.org/1999/xlink" x="0px" y="0px"
	 viewBox="0 0 1285 1256" style="enable-background:new 0 0 1285 1256;" xml:space="preserve">
<style type="text/css">
	.st0{display:none;}
	.st1{fill:#8E8E8E;}
	.st2{fill:#FFFFFF;}
	.st3{fill:#FFFFFF;}
	.st4{fill:#B5B5B5;}
	.st5{fill:#FFFFFF;}
	.st6{fill:#828282;}
</style>
<g id="Capa_1" class="st0">
</g>
<g id="Capa_2">
	<g>
		<rect x="2007" y="1545" class="st1" width="1289" height="1243"/>
	</g>
	<g>
		<path class="st2" d="M1092.5,541.5v124.2L849.7,840.5L617,668.4l-0.4-119.9H831c54.9,0,106.4-22.5,145.1-63.3
			c38.3-40.5,59.4-94.1,59.4-151.2s-21.1-110.7-59.4-151.2c-38.7-40.8-90.2-63.3-145.1-63.3H414.5v301h-55
			c-83.6,0-162.2,32.6-221.3,91.7c-59.1,59.1-91.7,137.7-91.7,221.3C46.5,820.3,83,904,146.7,963c33.1,30.7,73.9,54.4,121.2,70.2
			c43.7,14.6,91.1,22.1,140.9,22.1c83.4,0,165-21,229.7-59.2c26.1-15.4,50-34,71.4-55.5l139.3,112.8l407.3-316.7V541.5H1092.5z
			 M766.5,241.5c42.6,0,80,40.7,80,87s-37.4,87-80,87h-150v-174H766.5z M424.1,896.6c-1.3,0-2.5,0-3.8-0.1
			c-48.1-1.6-97.8-21.5-136.1-54.8c-37.9-32.9-59.7-74.9-59.7-115.2c0-87.1,79.2-158,176.5-158h11.5v153.7l155.3,113.5
			C536.5,859.5,479,896.6,424.1,896.6z"/>
	</g>
	<g>
		<path class="st3" d="M-541.5,900.5v112l-268,193L-1067,1015l-0.5-157.5h237h2.5c99.1,0,179.5-84.8,179.5-189.5
			S-728.9,478.5-828,478.5h-391.5V779l-0.5,0.5h-79.5c-159.1,0-288,128.9-288,288c0,79.7,33.8,157,92.2,211.2
			c117.4,108.9,329.1,108.3,462,29.8c30.7-18.1,58.3-41.2,81.8-68l142,115l382-297v-158H-541.5z M-1067.5,550.5h175
			c55.2,0,105,50.1,105,112s-49.8,112-105,112h-175V550.5z M-1239.5,1255.5c-111.2-3.6-220-93.9-220-195s90.2-183,201.5-183h36.5
			v166l171,125C-1050.5,1168.5-1146.5,1258.5-1239.5,1255.5z"/>
	</g>
	<g>
		<g>
			<path class="st3" d="M2822.4,1088.2v77.7l-186,134l-178.7-132.2l-0.3-109.3h164.5h1.7c68.8,0,124.6-58.9,124.6-131.5
				s-55.8-131.5-124.6-131.5h-271.7v208.6l-0.3,0.3h-55.2c-110.4,0-199.9,89.5-199.9,199.9c0,55.3,23.4,109,64,146.6
				c81.5,75.6,228.5,75.2,320.7,20.7c21.3-12.6,40.5-28.6,56.8-47.2l98.6,79.8l265.2-206.2v-109.7H2822.4z M2457.3,845.3h121.5
				c38.3,0,72.9,34.8,72.9,77.7c0,42.9-34.5,77.7-72.9,77.7h-121.5V845.3z M2337.9,1334.6c-77.2-2.5-152.7-65.2-152.7-135.4
				s62.6-127,139.9-127h25.3v115.2l118.7,86.8C2469.1,1274.3,2402.4,1336.7,2337.9,1334.6z"/>
		</g>
		<g>
			<path class="st3" d="M2330.4,1430.5c-34.8,0-68.1-5.2-98.7-15.5c-33.2-11.1-61.9-27.7-85.2-49.4
				c-44.8-41.6-70.5-100.4-70.5-161.5c0-58.8,22.9-114.1,64.5-155.7c41.6-41.6,96.9-64.5,155.7-64.5h35.2V775h292.1
				c38.9,0,75.4,15.9,102.9,44.9c27.1,28.6,42.1,66.6,42.1,107c0,40.4-14.9,78.4-42.1,107c-27.4,28.9-63.9,44.9-102.9,44.9h-145.9
				l0.3,78.7l158.6,117.3l165.5-119.2v-87.7h119.8v139.9L2636.1,1430l-96.5-78.1l-0.3,0.3c-14.4,14.1-30.6,26.5-48,36.8
				C2446,1415.7,2388.8,1430.5,2330.4,1430.5z M2325,1092.6c-65.9,0-119.5,47.9-119.5,106.7c0,56.9,64.7,112.8,133,115
				c0.8,0,1.7,0,2.5,0c22.2,0,48.8-9.4,77-27.1c5.8-3.6,11.6-7.6,17.2-11.7l0.5-0.4l-105.8-77.3v-105.2H2325z M2477.6,980.5h101.1
				c28,0,52.6-26.8,52.6-57.4c0-30.6-24.6-57.4-52.6-57.4h-101.1V980.5z"/>
			<path class="st4" d="M2623.5,775.5c38.8,0,75.2,15.9,102.5,44.7c27,28.5,41.9,66.4,41.9,106.6c0,40.2-14.9,78.1-41.9,106.6
				c-27.3,28.8-63.7,44.7-102.5,44.7h-145.4h-1l0,1l0.2,78l0,0.5l0.4,0.3l158.1,117l0.6,0.4l0.6-0.4l165-118.8l0.4-0.3v-0.5v-86.9
				h118.8v139.2l-285.2,221.8l-95.8-77.6l-0.7-0.6l-0.6,0.6c-14.4,14.1-30.5,26.5-47.9,36.7c-45.3,26.7-102.4,41.5-160.7,41.5
				c-34.8,0-67.9-5.2-98.6-15.5c-33.2-11.1-61.8-27.7-85-49.3c-44.7-41.5-70.3-100.2-70.3-161.1c0-58.7,22.9-113.9,64.4-155.4
				c41.5-41.5,96.7-64.4,155.4-64.4h34.7h1v-1V775.5H2623.5 M2477.1,981h1h100.6c28.3,0,53.1-27.1,53.1-57.9s-24.8-57.9-53.1-57.9
				h-100.6h-1v1V980V981 M2341,1314.9c22.2,0,49-9.4,77.3-27.2c5.8-3.6,11.6-7.6,17.2-11.7l1.1-0.8l-1.1-0.8l-105-76.8v-104.5v-1h-1
				h-4.5c-66.2,0-120,48.1-120,107.2c0,57.2,64.9,113.3,133.5,115.5C2339.4,1314.9,2340.2,1314.9,2341,1314.9 M2623.5,774.5h-292.6
				v208.9h-34.7c-59,0-114.4,23-156.1,64.6c-41.7,41.7-64.6,97.1-64.6,156.1c0,61.2,25.8,120.2,70.7,161.9
				c23.4,21.7,52.1,38.3,85.4,49.5c30.7,10.3,64,15.5,98.9,15.5c58.5,0,115.7-14.8,161.2-41.6c17.5-10.3,33.6-22.7,48.1-36.8
				l96.4,78.1l286.2-222.5v-140.7h-120.8v87.9l-165,118.8l-158.1-117l-0.2-78h145.4c39.1,0,75.7-16,103.2-45
				c27.2-28.7,42.2-66.8,42.2-107.3c0-40.5-15-78.6-42.2-107.3C2699.2,790.5,2662.6,774.5,2623.5,774.5L2623.5,774.5z M2478.1,980
				V866.1h100.6c27.7,0,52.1,26.6,52.1,56.9s-24.3,56.9-52.1,56.9H2478.1L2478.1,980z M2341,1313.9c-0.8,0-1.7,0-2.5,0
				c-68.1-2.2-132.6-57.9-132.6-114.5c0-58.6,53.4-106.2,119-106.2h4.5v105l105.4,77.1c-5,3.7-10.8,7.7-17.2,11.7
				C2389.7,1304.5,2363.1,1313.9,2341,1313.9L2341,1313.9z"/>
		</g>
		<g>
			<g>
				<path class="st5" d="M2822.4,1088.2v77.7l-186,134l-178.7-132.2l-0.3-109.3h164.5h1.7c68.8,0,124.6-58.9,124.6-131.5
					s-55.8-131.5-124.6-131.5h-271.7v208.6l-0.3,0.3h-55.2c-110.4,0-199.9,89.5-199.9,199.9c0,55.3,23.4,109,64,146.6
					c81.5,75.6,228.5,75.2,320.7,20.7c21.3-12.6,40.5-28.6,56.8-47.2l98.6,79.8l265.2-206.2v-109.7H2822.4z M2457.3,845.3h121.5
					c38.3,0,72.9,34.8,72.9,77.7c0,42.9-34.5,77.7-72.9,77.7h-121.5V845.3z M2337.9,1334.6c-77.2-2.5-152.7-65.2-152.7-135.4
					s62.6-127,139.9-127h25.3v115.2l118.7,86.8C2469.1,1274.3,2402.4,1336.7,2337.9,1334.6z"/>
			</g>
		</g>
	</g>
	<g>
		<rect x="-3527" y="2788" class="st3" width="1150" height="1150"/>
	</g>
	<g>
		<g>
			<g>
				<path class="st5" d="M-4002.3,4386.3c0-42.9-34.5-77.7-72.9-77.7h-121.5V4464h121.5C-4036.8,4464-4002.3,4429.2-4002.3,4386.3z
					 M-4175.8,4329.4h100.6c27.7,0,52.1,26.6,52.1,56.9c0,30.3-24.3,56.9-52.1,56.9h-100.6V4329.4z"/>
			</g>
			<g>
				<path class="st5" d="M-3852.4,4530.7v87.9l-165,118.8l-158.1-117l-0.2-78h145.4c39.1,0,75.7-16,103.2-45
					c27.2-28.7,42.2-66.8,42.2-107.3c0-40.5-15-78.6-42.2-107.3c-27.5-29-64.2-45-103.2-45H-4323v208.9h-34.7
					c-59,0-114.4,23-156.1,64.6c-41.7,41.7-64.6,97.1-64.6,156.1c0,61.2,25.8,120.2,70.7,161.9c23.4,21.7,52.1,38.3,85.4,49.5
					c30.7,10.3,64,15.5,98.9,15.5c58.5,0,115.7-14.8,161.2-41.6c17.5-10.3,33.6-22.7,48.1-36.8l96.4,78.1l286.2-222.5v-140.7
					H-3852.4z M-3752.4,4661.2l-265.2,206.2l-98.6-79.8c-16.3,18.6-35.4,34.6-56.8,47.2c-92.2,54.5-239.2,54.9-320.7-20.7
					c-40.6-37.6-64-91.3-64-146.6c0-110.4,89.5-199.9,199.9-199.9h55.2l0.3-0.3v-208.6h271.7c68.8,0,124.6,58.9,124.6,131.5
					c0,72.6-55.8,131.5-124.6,131.5h-1.7h-164.5l0.3,109.3l178.7,132.2l186-134v-77.7h79.1V4661.2z"/>
			</g>
			<g>
				<path class="st5" d="M-4303.5,4535.5h-25.3c-77.2,0-139.9,56.9-139.9,127s75.5,132.9,152.7,135.4
					c64.6,2.1,131.2-60.4,131.2-60.4l-118.7-86.8V4535.5z M-4218.9,4738.4c-5,3.7-10.8,7.7-17.2,11.7c-28.2,17.7-54.7,27-76.8,27
					c-0.8,0-1.7,0-2.5,0c-68.1-2.2-132.6-57.9-132.6-114.5c0-58.6,53.4-106.2,119-106.2h4.5v105L-4218.9,4738.4z"/>
			</g>
		</g>
	</g>
	<g>
		<g>
			<g>
				<path class="st5" d="M-4002.3,715.3c0-42.9-34.5-77.7-72.9-77.7h-121.5V793h121.5C-4036.8,793-4002.3,758.2-4002.3,715.3z
					 M-4175.8,658.4h100.6c27.7,0,52.1,26.6,52.1,56.9c0,30.3-24.3,56.9-52.1,56.9h-100.6V658.4z"/>
			</g>
			<g>
				<path class="st5" d="M-3852.4,859.7v87.9l-165,118.8l-158.1-117l-0.2-78h145.4c39.1,0,75.7-16,103.2-45
					c27.2-28.7,42.2-66.8,42.2-107.3c0-40.5-15-78.6-42.2-107.3c-27.5-29-64.2-45-103.2-45H-4323v208.9h-34.7
					c-59,0-114.4,23-156.1,64.6c-41.7,41.7-64.6,97.1-64.6,156.1c0,61.2,25.8,120.2,70.7,161.9c23.4,21.7,52.1,38.3,85.4,49.5
					c30.7,10.3,64,15.5,98.9,15.5c58.5,0,115.7-14.8,161.2-41.6c17.5-10.3,33.6-22.7,48.1-36.8l96.4,78.1l286.2-222.5V859.7H-3852.4
					z M-3752.4,990.2l-265.2,206.2l-98.6-79.8c-16.3,18.6-35.4,34.6-56.8,47.2c-92.2,54.5-239.2,54.9-320.7-20.7
					c-40.6-37.6-64-91.3-64-146.6c0-110.4,89.5-199.9,199.9-199.9h55.2l0.3-0.3V587.6h271.7c68.8,0,124.6,58.9,124.6,131.5
					c0,72.6-55.8,131.5-124.6,131.5h-1.7h-164.5l0.3,109.3l178.7,132.2l186-134v-77.7h79.1V990.2z"/>
			</g>
			<g>
				<path class="st5" d="M-4303.5,864.5h-25.3c-77.2,0-139.9,56.9-139.9,127s75.5,132.9,152.7,135.4c64.6,2.1,131.2-60.4,131.2-60.4
					l-118.7-86.8V864.5z M-4218.9,1067.4c-5,3.7-10.8,7.7-17.2,11.7c-28.2,17.7-54.7,27-76.8,27c-0.8,0-1.7,0-2.5,0
					c-68.1-2.2-132.6-57.9-132.6-114.5c0-58.6,53.4-106.2,119-106.2h4.5v105L-4218.9,1067.4z"/>
			</g>
		</g>
	</g>
	<g>
		<g>
			<g>
				<path class="st3" d="M-2831.3,4386.3c0-42.9-34.5-77.7-72.9-77.7h-121.5V4464h121.5C-2865.8,4464-2831.3,4429.2-2831.3,4386.3z
					 M-3004.8,4329.4h100.6c27.7,0,52.1,26.6,52.1,56.9c0,30.3-24.3,56.9-52.1,56.9h-100.6V4329.4z"/>
			</g>
			<g>
				<path class="st3" d="M-2681.4,4530.7v87.9l-165,118.8l-158.1-117l-0.2-78h145.4c39.1,0,75.7-16,103.2-45
					c27.2-28.7,42.2-66.8,42.2-107.3c0-40.5-15-78.6-42.2-107.3c-27.5-29-64.2-45-103.2-45H-3152v208.9h-34.7
					c-59,0-114.4,23-156.1,64.6c-41.7,41.7-64.6,97.1-64.6,156.1c0,61.2,25.8,120.2,70.7,161.9c23.4,21.7,52.1,38.3,85.4,49.5
					c30.7,10.3,64,15.5,98.9,15.5c58.5,0,115.7-14.8,161.2-41.6c17.5-10.3,33.6-22.7,48.1-36.8l96.4,78.1l286.2-222.5v-140.7
					H-2681.4z M-2581.4,4661.2l-265.2,206.2l-98.6-79.8c-16.3,18.6-35.4,34.6-56.8,47.2c-92.2,54.5-239.2,54.9-320.7-20.7
					c-40.6-37.6-64-91.3-64-146.6c0-110.4,89.5-199.9,199.9-199.9h55.2l0.3-0.3v-208.6h271.7c68.8,0,124.6,58.9,124.6,131.5
					c0,72.6-55.8,131.5-124.6,131.5h-1.7h-164.5l0.3,109.3l178.7,132.2l186-134v-77.7h79.1V4661.2z"/>
			</g>
			<g>
				<path class="st3" d="M-3132.5,4535.5h-25.3c-77.2,0-139.9,56.9-139.9,127s75.5,132.9,152.7,135.4
					c64.6,2.1,131.2-60.4,131.2-60.4l-118.7-86.8V4535.5z M-3047.9,4738.4c-5,3.7-10.8,7.7-17.2,11.7c-28.2,17.7-54.7,27-76.8,27
					c-0.8,0-1.7,0-2.5,0c-68.1-2.2-132.6-57.9-132.6-114.5c0-58.6,53.4-106.2,119-106.2h4.5v105L-3047.9,4738.4z"/>
			</g>
		</g>
	</g>
	<g>
		<rect x="-3537" y="310" class="st6" width="1150" height="1150"/>
	</g>
	<g>
		<g>
			<g>
				<path class="st3" d="M-2799.3,715.3c0-42.9-34.5-77.7-72.9-77.7h-121.5V793h121.5C-2833.8,793-2799.3,758.2-2799.3,715.3z
					 M-2972.8,658.4h100.6c27.7,0,52.1,26.6,52.1,56.9c0,30.3-24.3,56.9-52.1,56.9h-100.6V658.4z"/>
			</g>
			<g>
				<path class="st3" d="M-2649.4,859.7v87.9l-165,118.8l-158.1-117l-0.2-78h145.4c39.1,0,75.7-16,103.2-45
					c27.2-28.7,42.2-66.8,42.2-107.3c0-40.5-15-78.6-42.2-107.3c-27.5-29-64.2-45-103.2-45H-3120v208.9h-34.7
					c-59,0-114.4,23-156.1,64.6c-41.7,41.7-64.6,97.1-64.6,156.1c0,61.2,25.8,120.2,70.7,161.9c23.4,21.7,52.1,38.3,85.4,49.5
					c30.7,10.3,64,15.5,98.9,15.5c58.5,0,115.7-14.8,161.2-41.6c17.5-10.3,33.6-22.7,48.1-36.8l96.4,78.1l286.2-222.5V859.7H-2649.4
					z M-2549.4,990.2l-265.2,206.2l-98.6-79.8c-16.3,18.6-35.4,34.6-56.8,47.2c-92.2,54.5-239.2,54.9-320.7-20.7
					c-40.6-37.6-64-91.3-64-146.6c0-110.4,89.5-199.9,199.9-199.9h55.2l0.3-0.3V587.6h271.7c68.8,0,124.6,58.9,124.6,131.5
					c0,72.6-55.8,131.5-124.6,131.5h-1.7h-164.5l0.3,109.3l178.7,132.2l186-134v-77.7h79.1V990.2z"/>
			</g>
			<g>
				<path class="st3" d="M-3100.5,864.5h-25.3c-77.2,0-139.9,56.9-139.9,127s75.5,132.9,152.7,135.4c64.6,2.1,131.2-60.4,131.2-60.4
					l-118.7-86.8V864.5z M-3015.9,1067.4c-5,3.7-10.8,7.7-17.2,11.7c-28.2,17.7-54.7,27-76.8,27c-0.8,0-1.7,0-2.5,0
					c-68.1-2.2-132.6-57.9-132.6-114.5c0-58.6,53.4-106.2,119-106.2h4.5v105L-3015.9,1067.4z"/>
			</g>
		</g>
	</g>
	<g>
		<path class="st3" d="M-3839.4,3358.8v75.9l-181.5,130.7l-174.4-129l-0.3-106.7h160.5h1.7c67.1,0,121.6-57.5,121.6-128.3
			s-54.4-128.3-121.6-128.3h-265.1v203.5l-0.3,0.3h-53.8c-107.7,0-195,87.3-195,195c0,54,22.9,106.3,62.4,143
			c79.5,73.8,222.9,73.3,312.9,20.2c20.8-12.3,39.5-27.9,55.4-46.1l96.2,77.9l258.7-201.1v-107H-3839.4z M-4195.6,3121.8h118.5
			c37.4,0,71.1,34,71.1,75.9s-33.7,75.9-71.1,75.9h-118.5V3121.8z M-4312.1,3599.3c-75.3-2.4-149-63.6-149-132.1
			s61.1-123.9,136.5-123.9h24.7v112.4l115.8,84.7C-4184.1,3540.3-4249.1,3601.3-4312.1,3599.3z"/>
	</g>
	<g>
		<rect x="-4737" y="1546" class="st5" width="1150" height="1150"/>
	</g>
	<g>
		<path class="st3" d="M-3839.4,2116.8v75.9l-181.5,130.7l-174.4-129l-0.3-106.7h160.5h1.7c67.1,0,121.6-57.5,121.6-128.3
			c0-70.9-54.4-128.3-121.6-128.3h-265.1v203.5l-0.3,0.3h-53.8c-107.7,0-195,87.3-195,195c0,54,22.9,106.3,62.4,143
			c79.5,73.8,222.9,73.3,312.9,20.2c20.8-12.3,39.5-27.9,55.4-46.1l96.2,77.9l258.7-201.1v-107H-3839.4z M-4195.6,1879.8h118.5
			c37.4,0,71.1,34,71.1,75.9s-33.7,75.9-71.1,75.9h-118.5V1879.8z M-4312.1,2357.3c-75.3-2.4-149-63.6-149-132.1
			s61.1-123.9,136.5-123.9h24.7v112.4l115.8,84.7C-4184.1,2298.3-4249.1,2359.3-4312.1,2357.3z"/>
	</g>
	<g>
		<g>
			<path class="st5" d="M-2639.4,3334.8v75.9l-181.5,130.7l-174.4-129l-0.3-106.7h160.5h1.7c67.1,0,121.6-57.5,121.6-128.3
				s-54.4-128.3-121.6-128.3h-265.1v203.5l-0.3,0.3h-53.8c-107.7,0-195,87.3-195,195c0,54,22.9,106.3,62.4,143
				c79.5,73.8,222.9,73.3,312.9,20.2c20.8-12.3,39.5-27.9,55.4-46.1l96.2,77.9l258.7-201.1v-107H-2639.4z M-2995.6,3097.8h118.5
				c37.4,0,71.1,34,71.1,75.9s-33.7,75.9-71.1,75.9h-118.5V3097.8z M-3112.1,3575.3c-75.3-2.4-149-63.6-149-132.1
				s61.1-123.9,136.5-123.9h24.7v112.4l115.8,84.7C-2984.1,3516.3-3049.1,3577.3-3112.1,3575.3z"/>
		</g>
	</g>
	<g>
		<rect x="-3527" y="1570" class="st1" width="1150" height="1150"/>
	</g>
	<g>
		<g>
			<path class="st5" d="M-2639.4,2116.8v75.9l-181.5,130.7l-174.4-129l-0.3-106.7h160.5h1.7c67.1,0,121.6-57.5,121.6-128.3
				c0-70.9-54.4-128.3-121.6-128.3h-265.1v203.5l-0.3,0.3h-53.8c-107.7,0-195,87.3-195,195c0,54,22.9,106.3,62.4,143
				c79.5,73.8,222.9,73.3,312.9,20.2c20.8-12.3,39.5-27.9,55.4-46.1l96.2,77.9l258.7-201.1v-107H-2639.4z M-2995.6,1879.8h118.5
				c37.4,0,71.1,34,71.1,75.9s-33.7,75.9-71.1,75.9h-118.5V1879.8z M-3112.1,2357.3c-75.3-2.4-149-63.6-149-132.1
				s61.1-123.9,136.5-123.9h24.7v112.4l115.8,84.7C-2984.1,2298.3-3049.1,2359.3-3112.1,2357.3z"/>
		</g>
	</g>
</g>
</svg>
